<svg width="70" height="70" viewBox="0 0 70 70" fill="none" xmlns="http://www.w3.org/2000/svg">
<rect width="70" height="70" rx="35" fill="#C4C4C4"/>
<path d="M34.9574 16.0195C26.5995 16.0195 19.7827 22.6297 19.7827 30.7344C19.7827 35.8008 22.4501 40.3006 26.4894 42.9529C18.7581 46.1718 13.2695 53.7187 13.2695 62.3735L15.3288 63.9368L16.6128 64.6905L17.2822 65.0986L17.6094 65.2837L17.8968 65.4442C17.8968 56.1325 25.3547 45.4492 34.9574 45.4492C44.5601 45.4492 53.0898 55.5384 53.0898 64.8501L53.9583 64.3123L55.0218 63.6019L55.9045 62.9549L56.7127 62.3159C56.7127 53.6611 51.1567 46.1718 43.4254 42.9529C47.4646 40.3006 50.132 35.8008 50.132 30.7344C50.132 22.6297 43.3153 16.0195 34.9574 16.0195ZM34.9574 20.2238C40.9697 20.2238 45.7964 24.9043 45.7964 30.7344C45.7964 36.5644 40.9697 41.2449 34.9574 41.2449C28.9451 41.2449 24.1183 36.5644 24.1183 30.7344C24.1183 24.9043 28.9451 20.2238 34.9574 20.2238Z" fill="white" stroke="white" stroke-width="0.2"/>
</svg>
